<svg width="179" height="60" viewBox="0 0 179 60" fill="none" xmlns="http://www.w3.org/2000/svg">
<path d="M23.75 7.5C28.0598 7.5 32.193 9.21205 35.2405 12.2595C38.288 15.307 40 19.4402 40 23.75C40 27.775 38.525 31.475 36.1 34.325L36.775 35H38.75L51.25 47.5L47.5 51.25L35 38.75V36.775L34.325 36.1C31.475 38.525 27.775 40 23.75 40C19.4402 40 15.307 38.288 12.2595 35.2405C9.21205 32.193 7.5 28.0598 7.5 23.75C7.5 19.4402 9.21205 15.307 12.2595 12.2595C15.307 9.21205 19.4402 7.5 23.75 7.5ZM23.75 12.5C17.5 12.5 12.5 17.5 12.5 23.75C12.5 30 17.5 35 23.75 35C30 35 35 30 35 23.75C35 17.5 30 12.5 23.75 12.5Z" fill="#343434"/>
<circle cx="24" cy="24" r="12" fill="url(#paint0_linear_389_16)"/>
<path d="M75.9421 36.536C75.7501 36.696 75.3901 36.912 74.8621 37.184C74.3501 37.456 73.7181 37.696 72.9661 37.904C72.2141 38.112 71.3821 38.208 70.4701 38.192C69.0781 38.16 67.8301 37.912 66.7261 37.448C65.6381 36.968 64.7101 36.32 63.9421 35.504C63.1901 34.688 62.6141 33.752 62.2141 32.696C61.8141 31.64 61.6141 30.512 61.6141 29.312C61.6141 27.968 61.8141 26.736 62.2141 25.616C62.6301 24.496 63.2141 23.528 63.9661 22.712C64.7341 21.896 65.6461 21.264 66.7021 20.816C67.7581 20.368 68.9261 20.144 70.2061 20.144C71.3901 20.144 72.4381 20.304 73.3501 20.624C74.2621 20.944 75.0061 21.288 75.5821 21.656L74.2141 24.944C73.8141 24.64 73.2781 24.328 72.6061 24.008C71.9501 23.672 71.1901 23.504 70.3261 23.504C69.4301 23.504 68.5901 23.752 67.8061 24.248C67.0381 24.744 66.4141 25.416 65.9341 26.264C65.4701 27.096 65.2381 28.048 65.2381 29.12C65.2381 30.256 65.4541 31.256 65.8861 32.12C66.3181 32.968 66.9341 33.632 67.7341 34.112C68.5341 34.592 69.4701 34.832 70.5421 34.832C71.4861 34.832 72.2941 34.68 72.9661 34.376C73.6381 34.072 74.1501 33.752 74.5021 33.416L75.9421 36.536ZM78.3484 29.192C78.3484 27.976 78.5804 26.824 79.0444 25.736C79.5084 24.648 80.1484 23.688 80.9644 22.856C81.7964 22.008 82.7564 21.344 83.8444 20.864C84.9324 20.384 86.0924 20.144 87.3244 20.144C88.5724 20.144 89.7404 20.384 90.8284 20.864C91.9164 21.344 92.8764 22.008 93.7084 22.856C94.5564 23.688 95.2124 24.648 95.6764 25.736C96.1564 26.824 96.3964 27.976 96.3964 29.192C96.3964 30.44 96.1564 31.608 95.6764 32.696C95.2124 33.784 94.5564 34.744 93.7084 35.576C92.8764 36.392 91.9164 37.032 90.8284 37.496C89.7404 37.96 88.5804 38.192 87.3484 38.192C86.1004 38.192 84.9324 37.96 83.8444 37.496C82.7564 37.032 81.7964 36.392 80.9644 35.576C80.1484 34.744 79.5084 33.784 79.0444 32.696C78.5804 31.608 78.3484 30.44 78.3484 29.192ZM81.9484 29.192C81.9484 30.232 82.1884 31.184 82.6684 32.048C83.1644 32.896 83.8284 33.576 84.6604 34.088C85.4924 34.584 86.4284 34.832 87.4684 34.832C88.4764 34.832 89.3804 34.584 90.1804 34.088C90.9964 33.576 91.6364 32.896 92.1004 32.048C92.5644 31.184 92.7964 30.232 92.7964 29.192C92.7964 28.12 92.5564 27.16 92.0764 26.312C91.5964 25.448 90.9484 24.768 90.1324 24.272C89.3164 23.76 88.3964 23.504 87.3724 23.504C86.3484 23.504 85.4284 23.76 84.6124 24.272C83.7964 24.768 83.1484 25.448 82.6684 26.312C82.1884 27.16 81.9484 28.12 81.9484 29.192ZM99.8659 20.336H103.346V34.64H111.65V38H99.8659V20.336ZM115.241 20.336H118.721V34.64H127.025V38H115.241V20.336ZM130.616 20.336H142.664V23.696H134.096V27.464H141.68V30.824H134.096V34.64H143V38H130.616V20.336ZM160.928 36.224C160.72 36.448 160.392 36.68 159.944 36.92C159.496 37.144 158.976 37.352 158.384 37.544C157.808 37.736 157.216 37.888 156.608 38C156 38.128 155.424 38.192 154.88 38.192C152.976 38.192 151.32 37.824 149.912 37.088C148.504 36.352 147.416 35.344 146.648 34.064C145.896 32.784 145.52 31.32 145.52 29.672C145.52 28.056 145.76 26.656 146.24 25.472C146.736 24.272 147.4 23.28 148.232 22.496C149.08 21.696 150.048 21.104 151.136 20.72C152.24 20.336 153.392 20.144 154.592 20.144C155.728 20.144 156.768 20.272 157.712 20.528C158.656 20.768 159.456 21.072 160.112 21.44L158.984 24.68C158.696 24.52 158.312 24.36 157.832 24.2C157.352 24.04 156.864 23.912 156.368 23.816C155.872 23.704 155.432 23.648 155.048 23.648C153.784 23.648 152.704 23.864 151.808 24.296C150.928 24.712 150.256 25.344 149.792 26.192C149.344 27.04 149.12 28.096 149.12 29.36C149.12 30.464 149.368 31.416 149.864 32.216C150.36 33.016 151.048 33.632 151.928 34.064C152.824 34.496 153.84 34.712 154.976 34.712C155.472 34.712 155.928 34.68 156.344 34.616C156.76 34.536 157.112 34.416 157.4 34.256V32.12H154.352V28.76H160.928V36.224ZM164.882 20.336H176.93V23.696H168.362V27.464H175.946V30.824H168.362V34.64H177.266V38H164.882V20.336Z" fill="#343434"/>
<defs>
<linearGradient id="paint0_linear_389_16" x1="32" y1="18" x2="16.5" y2="113" gradientUnits="userSpaceOnUse">
<stop stop-color="#42C613"/>
<stop offset="0.190447" stop-color="#FFF500"/>
</linearGradient>
</defs>
</svg>
